<mxfile host="app.diagrams.net" modified="2024-05-22T14:47:41.238Z" agent="Mozilla/5.0 (Windows NT 10.0; Win64; x64) AppleWebKit/537.36 (KHTML, like Gecko) Chrome/124.0.0.0 Safari/537.36" version="24.4.6" etag="fxr7_6YiwEnP_xNdLhYD" type="github">
  <diagram name="第 1 页" id="G0VvMlHXsFRXtVDaq6HX">
    <mxGraphModel>
      <root>
        <mxCell id="0" />
        <mxCell id="1" parent="0" />
      </root>
    </mxGraphModel>
  </diagram>
</mxfile>
